<svg xmlns="http://www.w3.org/2000/svg" xmlns:xlink="http://www.w3.org/1999/xlink" width="192" height="69.381" viewBox="0 0 192 69.381">
  <defs>
    <linearGradient id="linear-gradient" y1="0.717" x2="1" y2="0.696" gradientUnits="objectBoundingBox">
      <stop offset="0" stop-color="#7a00b1"/>
      <stop offset="0.046" stop-color="#0097ee"/>
      <stop offset="0.131" stop-color="#ace8c6"/>
      <stop offset="0.325" stop-color="#8626e5"/>
      <stop offset="0.797" stop-color="#dbffbb"/>
      <stop offset="1" stop-color="#0083b3"/>
    </linearGradient>
  </defs>
  <g id="Path_4403" data-name="Path 4403" fill="url(#linear-gradient)">
    <path d="M 190 68.88104248046875 L 2 68.88104248046875 C 1.186904788017273 68.88104248046875 0.5 67.88800048828125 0.5 66.71254730224609 L 0.5 2.668497323989868 C 0.5 1.493045091629028 1.186904788017273 0.4999974370002747 2 0.4999974370002747 L 190 0.4999974370002747 C 190.8130950927734 0.4999974370002747 191.5 1.493045091629028 191.5 2.668497323989868 L 191.5 66.71254730224609 C 191.5 67.88800048828125 190.8130950927734 68.88104248046875 190 68.88104248046875 Z" stroke="none"/>
    <path d="M 2 1 C 1.5279541015625 1 1 1.713546752929688 1 2.668495178222656 L 1 66.71254730224609 C 1 67.66749572753906 1.5279541015625 68.38104248046875 2 68.38104248046875 L 190 68.38104248046875 C 190.4720458984375 68.38104248046875 191 67.66749572753906 191 66.71254730224609 L 191 2.668495178222656 C 191 1.713546752929688 190.4720458984375 1 190 1 L 2 1 M 2 0 L 190 0 C 191.1045684814453 0 192 1.194725036621094 192 2.668495178222656 L 192 66.71254730224609 C 192 68.18629455566406 191.1045684814453 69.38104248046875 190 69.38104248046875 L 2 69.38104248046875 C 0.8954315185546875 69.38104248046875 0 68.18629455566406 0 66.71254730224609 L 0 2.668495178222656 C 0 1.194725036621094 0.8954315185546875 0 2 0 Z" stroke="none" fill="#59549e"/>
  </g>
</svg>